#N canvas 359 159 683 663 10;
#X obj 286 517 dac~;
#X obj 505 244 vsl 15 128 0 1 0 0 empty empty empty 0 -9 0 10 -262144
-1 -1 0 1;
#X obj 296 451 *~;
#X text 494 213 volume;
#X obj 204 383 cos~;
#X obj 204 331 +~;
#X obj 294 279 +~;
#X floatatom 177 105 5 0 0 0 - - -;
#X obj 191 207 phasor~;
#X floatatom 362 105 5 0 0 0 - - -;
#X obj 319 208 *~;
#X obj 349 160 osc~;
#X floatatom 270 105 5 0 0 0 - - -;
#X text 154 83 carrier freq;
#X text 331 80 modulator freq;
#X text 261 80 pm index;
#X obj 102 450 send~ feedback;
#X obj 67 275 *~;
#X obj 66 205 receive~ feedback;
#X obj 14 107 hsl 128 15 0 5 0 0 empty empty empty -2 -8 0 10 -262144
-1 -1 0 1;
#X text 44 85 feedback amt;
#X connect 1 0 2 1;
#X connect 2 0 0 0;
#X connect 2 0 0 1;
#X connect 4 0 2 0;
#X connect 4 0 16 0;
#X connect 5 0 4 0;
#X connect 6 0 5 1;
#X connect 7 0 8 0;
#X connect 8 0 6 0;
#X connect 9 0 11 0;
#X connect 10 0 6 1;
#X connect 11 0 10 1;
#X connect 12 0 10 0;
#X connect 17 0 5 0;
#X connect 18 0 17 1;
#X connect 19 0 17 0;
